<svg width="1320" height="340" viewBox="0 0 1320 340" fill="none" xmlns="http://www.w3.org/2000/svg">
<g clip-path="url(#clip0_6473_17404)">
<path d="M9 -11L-235 233" stroke="#242424"/>
<path d="M17.9766 -11L-226.023 233" stroke="#242424"/>
<path d="M26.9453 -11L-217.055 233" stroke="#242424"/>
<path d="M35.9219 -11L-208.078 233" stroke="#242424"/>
<path d="M44.8984 -11L-199.102 233" stroke="#242424"/>
<path d="M53.8672 -11L-190.133 233" stroke="#242424"/>
<path d="M62.8438 -11L-181.156 233" stroke="#242424"/>
<path d="M71.8203 -11L-172.18 233" stroke="#242424"/>
<path d="M80.7969 -11L-163.203 233" stroke="#242424"/>
<path d="M89.7656 -11L-154.234 233" stroke="#242424"/>
<path d="M98.7422 -11L-145.258 233" stroke="#242424"/>
<path d="M107.719 -11L-136.281 233" stroke="#242424"/>
<path d="M116.688 -11L-127.312 233" stroke="#242424"/>
<path d="M125.664 -11L-118.336 233" stroke="#242424"/>
<path d="M134.641 -11L-109.359 233" stroke="#242424"/>
<path d="M143.609 -11L-100.391 233" stroke="#242424"/>
<path d="M152.586 -11L-91.414 233" stroke="#242424"/>
<path d="M161.562 -11L-82.4375 233" stroke="#242424"/>
<path d="M170.531 -11L-73.4687 233" stroke="#242424"/>
<path d="M179.508 -11L-64.4922 233" stroke="#242424"/>
<path d="M188.484 -11L-55.5156 233" stroke="#242424"/>
<path d="M197.453 -11L-46.5469 233" stroke="#242424"/>
<path d="M206 -11L-38 233" stroke="#242424"/>
<path d="M214.547 -11L-29.4531 233" stroke="#242424"/>
<path d="M223.086 -11L-20.914 233" stroke="#242424"/>
<path d="M224 -3L-20 241" stroke="#242424"/>
<path d="M345 -116L-149 378" stroke="#242424"/>
<path d="M355 -116L-139 378" stroke="#242424"/>
<path d="M365 -116L-129 378" stroke="#242424"/>
<path d="M375 -116L-119 378" stroke="#242424"/>
<path d="M385 -116L-109 378" stroke="#242424"/>
<path d="M395 -116L-99.0001 378" stroke="#242424"/>
<path d="M405 -116L-89.0001 378" stroke="#242424"/>
<path d="M415 -116L-79.0001 378" stroke="#242424"/>
<path d="M425 -116L-69.0001 378" stroke="#242424"/>
<path d="M435 -116L-59.0001 378" stroke="#242424"/>
<path d="M445 -116L-49.0001 378" stroke="#242424"/>
<path d="M455 -116L-39.0001 378" stroke="#242424"/>
<path d="M465 -116L-29.0001 378" stroke="#242424"/>
<path d="M475 -116L-19.0001 378" stroke="#242424"/>
<path d="M485 -116L-9.00009 378" stroke="#242424"/>
<path d="M495 -116L0.999907 378" stroke="#242424"/>
<path d="M505 -116L10.9999 378" stroke="#242424"/>
<path d="M515 -116L20.9999 378" stroke="#242424"/>
<path d="M525 -116L30.9999 378" stroke="#242424"/>
<path d="M535 -116L40.9999 378" stroke="#242424"/>
<path d="M545 -116L50.9999 378" stroke="#242424"/>
<path d="M555 -116L60.9999 378" stroke="#242424"/>
<path d="M565 -116L70.9999 378" stroke="#242424"/>
<path d="M575 -116L80.9999 378" stroke="#242424"/>
<path d="M585 -116L90.9999 378" stroke="#242424"/>
<path d="M595 -116L101 378" stroke="#242424"/>
<path d="M605 -116L111 378" stroke="#242424"/>
<path d="M615 -116L121 378" stroke="#242424"/>
<path d="M625 -116L131 378" stroke="#242424"/>
<path d="M635 -116L141 378" stroke="#242424"/>
<path d="M645 -116L151 378" stroke="#242424"/>
<path d="M655 -116L161 378" stroke="#242424"/>
<path d="M665 -116L171 378" stroke="#242424"/>
<path d="M675 -116L181 378" stroke="#242424"/>
<path d="M685 -116L191 378" stroke="#242424"/>
<path d="M695 -116L201 378" stroke="#242424"/>
<path d="M705 -116L211 378" stroke="#242424"/>
<path d="M715 -116L221 378" stroke="#242424"/>
<path d="M725 -116L231 378" stroke="#242424"/>
<path d="M735 -116L241 378" stroke="#242424"/>
<path d="M745 -116L251 378" stroke="#242424"/>
<path d="M755 -116L261 378" stroke="#242424"/>
<path d="M765 -116L271 378" stroke="#242424"/>
<path d="M775 -116L281 378" stroke="#242424"/>
<path d="M785 -116L291 378" stroke="#242424"/>
<path d="M795 -116L301 378" stroke="#242424"/>
<path d="M805 -116L311 378" stroke="#242424"/>
<path d="M815 -116L321 378" stroke="#242424"/>
<path d="M825 -116L331 378" stroke="#242424"/>
<path d="M835 -116L341 378" stroke="#242424"/>
<path d="M845 -116L351 378" stroke="#242424"/>
<path d="M855 -116L361 378" stroke="#242424"/>
<path d="M865 -116L371 378" stroke="#242424"/>
<path d="M875 -116L381 378" stroke="#242424"/>
<path d="M885 -116L391 378" stroke="#242424"/>
<path d="M895 -116L401 378" stroke="#242424"/>
<path d="M905 -116L411 378" stroke="#242424"/>
<path d="M915 -116L421 378" stroke="#242424"/>
<path d="M925 -116L431 378" stroke="#242424"/>
<path d="M935 -116L441 378" stroke="#242424"/>
<path d="M945 -116L451 378" stroke="#242424"/>
<path d="M955 -116L461 378" stroke="#242424"/>
<path d="M965 -116L471 378" stroke="#242424"/>
<path d="M975 -116L481 378" stroke="#242424"/>
<path d="M985 -116L491 378" stroke="#242424"/>
<path d="M995 -116L501 378" stroke="#242424"/>
<path d="M1005 -116L511 378" stroke="#242424"/>
<path d="M1015 -116L521 378" stroke="#242424"/>
<path d="M1025 -116L531 378" stroke="#242424"/>
<path d="M1035 -116L541 378" stroke="#242424"/>
<path d="M1045 -116L551 378" stroke="#242424"/>
<path d="M1055 -116L561 378" stroke="#242424"/>
<path d="M1065 -116L571 378" stroke="#242424"/>
<path d="M1075 -116L581 378" stroke="#242424"/>
<path d="M1085 -116L591 378" stroke="#242424"/>
<path d="M1095 -116L601 378" stroke="#242424"/>
<path d="M1105 -116L611 378" stroke="#242424"/>
<path d="M1115 -116L621 378" stroke="#242424"/>
<path d="M1125 -116L631 378" stroke="#242424"/>
<path d="M1135 -116L641 378" stroke="#242424"/>
<path d="M1145 -116L651 378" stroke="#242424"/>
<path d="M1155 -116L661 378" stroke="#242424"/>
<path d="M1165 -116L671 378" stroke="#242424"/>
<path d="M1175 -116L681 378" stroke="#242424"/>
<path d="M1185 -116L691 378" stroke="#242424"/>
<path d="M1195 -116L701 378" stroke="#242424"/>
<path d="M1205 -116L711 378" stroke="#242424"/>
<path d="M1215 -116L721 378" stroke="#242424"/>
<path d="M1225 -116L731 378" stroke="#242424"/>
<path d="M1235 -116L741 378" stroke="#242424"/>
<path d="M1245 -116L751 378" stroke="#242424"/>
<path d="M1255 -116L761 378" stroke="#242424"/>
<path d="M1265 -116L771 378" stroke="#242424"/>
<path d="M1275 -116L781 378" stroke="#242424"/>
<path d="M1285 -116L791 378" stroke="#242424"/>
<path d="M1295 -116L801 378" stroke="#242424"/>
<path d="M1305 -116L811 378" stroke="#242424"/>
<path d="M1315 -116L821 378" stroke="#242424"/>
<path d="M1325 -116L831 378" stroke="#242424"/>
<path d="M1335 -116L841 378" stroke="#242424"/>
<path d="M1345 -116L851 378" stroke="#242424"/>
<path d="M1355 -116L861 378" stroke="#242424"/>
<path d="M1365 -116L871 378" stroke="#242424"/>
<path d="M1375 -116L881 378" stroke="#242424"/>
<path d="M1385 -116L891 378" stroke="#242424"/>
<path d="M1395 -116L901 378" stroke="#242424"/>
<path d="M1405 -116L911 378" stroke="#242424"/>
<path d="M1415 -116L921 378" stroke="#242424"/>
<path d="M1425 -116L931 378" stroke="#242424"/>
<path d="M1435 -116L941 378" stroke="#242424"/>
<path d="M1445 -116L951 378" stroke="#242424"/>
<path d="M1455 -116L961 378" stroke="#242424"/>
<path d="M1465 -116L971 378" stroke="#242424"/>
<path d="M1475 -116L981 378" stroke="#242424"/>
<path d="M1485 -116L991 378" stroke="#242424"/>
<path d="M1495 -116L1001 378" stroke="#242424"/>
<path d="M1505 -116L1011 378" stroke="#242424"/>
<path d="M1515 -116L1021 378" stroke="#242424"/>
<path d="M1525 -116L1031 378" stroke="#242424"/>
<path d="M1535 -116L1041 378" stroke="#242424"/>
<path d="M1545 -116L1051 378" stroke="#242424"/>
<path d="M1555 -116L1061 378" stroke="#242424"/>
<path d="M1565 -116L1071 378" stroke="#242424"/>
<path d="M1575 -116L1081 378" stroke="#242424"/>
<path d="M1585 -116L1091 378" stroke="#242424"/>
<path d="M1595 -116L1101 378" stroke="#242424"/>
<path d="M1605 -116L1111 378" stroke="#242424"/>
<path d="M1615 -116L1121 378" stroke="#242424"/>
<path d="M1625 -116L1131 378" stroke="#242424"/>
<path d="M1635 -116L1141 378" stroke="#242424"/>
<path d="M1645 -116L1151 378" stroke="#242424"/>
<path d="M1655 -116L1161 378" stroke="#242424"/>
<path d="M1665 -116L1171 378" stroke="#242424"/>
<path d="M1675 -116L1181 378" stroke="#242424"/>
<path d="M1685 -116L1191 378" stroke="#242424"/>
<path d="M1695 -116L1201 378" stroke="#242424"/>
<path d="M1705 -116L1211 378" stroke="#242424"/>
<path d="M1715 -116L1221 378" stroke="#242424"/>
<path d="M1725 -116L1231 378" stroke="#242424"/>
<path d="M1735 -116L1241 378" stroke="#242424"/>
<path d="M1745 -116L1251 378" stroke="#242424"/>
<path d="M1755 -116L1261 378" stroke="#242424"/>
</g>
<defs>
<clipPath id="clip0_6473_17404">
<rect width="1320" height="340" fill="white"/>
</clipPath>
</defs>
</svg>
